<svg width="70" height="76" viewBox="0 0 70 76" fill="none" xmlns="http://www.w3.org/2000/svg">
<g clip-path="url(#clip0_52_840)">
<path d="M67.4725 16.5174C66.7033 14.9758 65.4945 12.9937 63.6264 11.4521C62.8572 10.6813 61.8681 10.1307 60.5495 9.91044C59.5605 9.69021 58.5714 9.35986 57.4725 9.35986H57.2528C55.9341 9.35986 53.4066 9.58009 51.978 11.6723C51.2088 12.4431 50.989 13.6544 51.2088 14.9758C51.4286 15.9668 51.978 16.7376 52.967 16.9579C52.967 16.9579 53.1868 16.9579 53.7363 17.1781C53.5165 17.1781 53.1868 17.7287 53.1868 17.7287C52.6374 18.4995 51.4286 19.7108 47.9121 19.7108H47.6923C45.9341 19.7108 44.3956 19.1602 42.6374 16.9579C41.6484 15.4162 40.8791 13.1038 40.8791 9.13963C40.8791 7.15754 40.6594 5.28557 40.1099 4.07429C39.8901 3.08325 39.1209 2.31244 38.3517 1.76186C37.8022 1.21128 37.033 0.991044 36.044 0.770812C35.055 0 33.5165 0 32.3077 0C30.7692 0 30 0.220232 29.5605 0.991044C29.5605 0.991044 29.5605 1.21128 29.3407 1.21128H28.3517C27.5824 1.21128 26.8132 1.43151 26.044 1.43151C24.5055 1.65174 23.7363 2.20232 22.7473 2.97313C22.5275 3.19336 21.7583 3.96418 21.4286 4.95522C21.2088 5.72603 21.4286 6.27661 21.6484 6.49684C21.6484 6.49684 21.6484 6.71708 21.8681 6.71708C22.4176 6.1665 23.1868 5.94626 24.3956 5.94626C25.9341 5.94626 28.2418 6.71708 28.9011 7.92835C29.8901 9.69021 29.6703 11.0116 29.4506 12.7735C28.9011 17.068 27.1429 19.3804 23.8462 19.8209H22.0879C19.5605 19.8209 17.8022 19.0501 17.033 17.5084C16.4835 16.9579 16.4835 16.7376 16.4835 16.7376C16.4835 16.7376 16.7033 16.7376 17.033 16.5174C18.022 15.9668 18.5714 15.5264 18.7912 14.5353C19.011 13.5443 18.7912 12.2229 18.022 11.2318C16.7033 9.91044 14.9451 9.24974 12.7473 9.24974C11.4286 9.24974 10.4396 9.46997 9.67034 9.80032C6.59342 10.5711 4.39562 12.5532 2.63738 16.4073C1.31869 18.94 0.329684 22.4637 0.109904 25.9874C-0.109877 29.5111 -0.109877 32.5943 0.109904 35.3472C0.659354 39.862 1.42858 42.725 2.4176 45.4779C3.40661 48.5612 4.94507 51.3141 6.48353 53.8467C7.03298 54.8378 7.25276 55.3883 7.47254 55.6086C7.69232 55.3883 8.02199 55.058 8.24177 54.6175C8.79122 54.067 10.5495 51.8646 10.989 51.0938C11.7583 50.5432 12.5275 49.1117 12.967 48.0106L13.1868 47.46L13.7363 48.0106C14.2857 48.5611 14.5055 49.0016 14.5055 49.7724C14.5055 50.5432 14.2857 51.3141 13.9561 52.8557C13.4066 54.3973 12.6374 56.3794 11.6484 57.921C11.6484 58.1412 11.4286 58.4716 11.4286 58.4716C10.8791 59.4626 10.6594 60.0132 10.8791 60.2334C11.0989 60.2334 11.8681 60.0132 12.6374 59.2424C13.6264 58.8019 15.3846 57.2603 17.5824 53.9568C19.3407 51.6444 20.6594 49.1117 21.8681 46.3588L22.0879 45.8083L22.6374 46.0285C22.8572 46.0285 23.1868 46.2487 23.1868 46.5791C23.4066 47.1296 23.4066 47.5701 23.4066 48.3409C23.1868 50.1028 22.0879 52.6354 21.4286 54.3973C20.1099 57.4805 17.5824 61.0043 15.8242 63.5369C15.8242 63.5369 15.2747 64.0875 15.2747 64.3077C15.4945 64.528 15.8242 64.8583 16.2638 65.0786L17.033 65.6291C19.5605 67.6112 21.8681 69.4832 24.8352 70.9147C27.1429 72.2361 31.8681 74.7688 34.9451 75.4295C38.022 74.6586 42.7473 72.126 45.055 70.9147C48.1319 69.1528 50.3297 67.6112 52.8572 65.6291L53.6264 65.0786C54.1758 64.8583 54.3956 64.3077 54.6154 64.3077C54.6154 64.3077 54.3956 64.0875 54.3956 63.7572L54.1758 63.5369C52.4176 61.0043 49.8901 57.4805 48.5714 54.3973C47.8022 52.6354 46.8132 49.8825 46.5934 48.3409C46.5934 47.5701 46.5934 47.0195 46.8132 46.5791C46.8132 46.3588 47.033 46.3588 47.3627 46.0285C47.5824 45.8083 47.9121 45.8083 47.9121 45.8083L48.1319 46.3588C49.4506 49.1117 50.8791 51.4242 52.4176 53.9568C54.7253 57.2603 56.4835 58.8019 57.2528 59.2424C58.022 59.793 58.7912 60.2334 59.011 60.2334H59.3407C59.5605 60.0132 59.3407 59.4626 58.7912 58.4716C58.7912 58.2514 58.5714 57.921 58.5714 57.921C57.5824 56.1592 56.8132 54.3973 56.2638 52.8557C55.7143 51.3141 55.4945 50.5432 55.4945 49.7724C55.4945 49.0016 55.7143 48.2308 56.2638 48.0106L56.8132 47.7903L57.033 48.3409C57.5824 49.332 58.5714 50.8736 58.7912 51.4242C59.3407 52.195 61.0989 54.1771 61.5385 54.9479L62.3077 55.7187C62.5275 55.4985 62.8572 54.9479 63.2967 54.1771V53.9568C64.8352 51.4242 66.044 48.6713 67.3627 45.588C68.3517 42.5048 69.1209 39.9721 69.6703 35.4574C69.8901 32.7045 70.2198 29.6212 69.6703 26.0975C69.6703 22.5738 69.011 19.0501 67.4725 16.5174Z" fill="white"/>
</g>
<defs>
<clipPath id="clip0_52_840">
<rect width="70" height="75.5396" fill="white"/>
</clipPath>
</defs>
</svg>
